<?xml version="1.0" standalone="no"?>
<!DOCTYPE svg PUBLIC "-//W3C//DTD SVG 20010904//EN"
 "http://www.w3.org/TR/2001/REC-SVG-20010904/DTD/svg10.dtd">
<svg version="1.0" xmlns="http://www.w3.org/2000/svg"
 width="800.000000pt" height="800.000000pt" viewBox="0 0 800.000000 800.000000"
 preserveAspectRatio="xMidYMid meet">

<g transform="translate(0.000000,800.000000) scale(0.100000,-0.100000)"
fill="#000000" stroke="none">
<path d="M435 7946 c-38 -12 -88 -32 -110 -43 -121 -63 -228 -191 -270 -325
l-25 -79 0 -3492 c0 -3854 -5 -3542 62 -3671 45 -86 165 -204 248 -244 139
-67 -171 -62 3660 -62 3834 0 3523 -5 3660 62 83 41 203 160 248 244 67 129
62 -183 62 3671 l0 3492 -25 79 c-45 144 -151 265 -289 332 -134 65 168 60
-3666 60 l-3485 -1 -70 -23z m1562 -1092 c294 -95 483 -354 483 -661 0 -112
-20 -196 -72 -303 -34 -70 -57 -101 -132 -176 -103 -102 -183 -148 -327 -185
-151 -39 -333 -16 -476 60 -133 71 -237 182 -302 322 -45 96 -61 171 -61 285
0 200 59 343 200 484 115 116 243 180 405 204 66 10 206 -5 282 -30z m3670
-1779 c348 -45 593 -165 789 -386 172 -194 280 -492 331 -914 14 -122 17 -297
20 -1357 l4 -1218 -595 0 -595 0 -3 1102 c-4 1090 -4 1104 -26 1216 -58 296
-161 432 -382 508 -45 16 -83 19 -215 18 -148 0 -166 -2 -240 -28 -113 -39
-174 -77 -244 -151 -64 -69 -127 -184 -155 -285 -50 -177 -49 -154 -53 -1303
l-4 -1077 -590 0 -589 0 0 1900 0 1900 565 0 565 0 0 -260 c0 -143 4 -260 9
-260 4 0 24 26 44 58 141 227 392 410 683 497 178 54 450 70 681 40z m-3287
-1975 l0 -1900 -590 0 -590 0 0 1900 0 1900 590 0 590 0 0 -1900z"/>
</g>
</svg>
